<svg xmlns="http://www.w3.org/2000/svg" width="512" height="512" viewBox="0 0 100 100" role="img" aria-labelledby="title desc">
  <title id="title">Tribeca Academia</title>
  <desc id="desc">Logotipo vectorial sin fondo: escudo verde con letra T dorada y laureles dorados.</desc>
  <defs>
    <linearGradient id="shieldGreen" x1="0" y1="10" x2="0" y2="88" gradientUnits="userSpaceOnUse">
      <stop offset="0" stop-color="#062611"/>
      <stop offset="0.52" stop-color="#04220F"/>
      <stop offset="1" stop-color="#03180B"/>
    </linearGradient>
    <linearGradient id="shieldGold" x1="25" y1="12" x2="75" y2="86" gradientUnits="userSpaceOnUse">
      <stop offset="0" stop-color="#C4934B"/>
      <stop offset="0.45" stop-color="#B5863B"/>
      <stop offset="1" stop-color="#8B6C32"/>
    </linearGradient>
    <linearGradient id="letterGold" x1="32" y1="30" x2="68" y2="72" gradientUnits="userSpaceOnUse">
      <stop offset="0" stop-color="#D2AA54"/>
      <stop offset="0.55" stop-color="#C4934B"/>
      <stop offset="1" stop-color="#8B6C32"/>
    </linearGradient>
    <linearGradient id="laurelGold" x1="18" y1="52" x2="82" y2="92" gradientUnits="userSpaceOnUse">
      <stop offset="0" stop-color="#C4934B"/>
      <stop offset="0.5" stop-color="#D1B180"/>
      <stop offset="1" stop-color="#8B6C32"/>
    </linearGradient>
  </defs>
  <g id="laurel" fill="url(#laurelGold)" stroke="#8B6C32" stroke-width="0.25" stroke-linejoin="round">
    <path d="M35.2 89.5C25.9 83.8 19.7 75.6 17.8 65.2C16.9 60.4 17.2 55.7 18.7 51.4" fill="none" stroke="#A57935" stroke-width="1.25" stroke-linecap="round"/>
    <path d="M64.8 89.5C74.1 83.8 80.3 75.6 82.2 65.2C83.1 60.4 82.8 55.7 81.3 51.4" fill="none" stroke="#A57935" stroke-width="1.25" stroke-linecap="round"/>
    <ellipse cx="30.6" cy="84.0" rx="2.0" ry="4.6" transform="rotate(-49 30.6 84.0)"/>
    <ellipse cx="26.5" cy="79.5" rx="2.0" ry="4.9" transform="rotate(-58 26.5 79.5)"/>
    <ellipse cx="23.3" cy="74.2" rx="2.0" ry="4.9" transform="rotate(-66 23.3 74.2)"/>
    <ellipse cx="21.0" cy="68.2" rx="2.0" ry="4.8" transform="rotate(-75 21.0 68.2)"/>
    <ellipse cx="20.0" cy="61.9" rx="1.9" ry="4.5" transform="rotate(-84 20.0 61.9)"/>
    <ellipse cx="20.2" cy="55.7" rx="1.7" ry="4.1" transform="rotate(-97 20.2 55.7)"/>
    <ellipse cx="69.4" cy="84.0" rx="2.0" ry="4.6" transform="rotate(49 69.4 84.0)"/>
    <ellipse cx="73.5" cy="79.5" rx="2.0" ry="4.9" transform="rotate(58 73.5 79.5)"/>
    <ellipse cx="76.7" cy="74.2" rx="2.0" ry="4.9" transform="rotate(66 76.7 74.2)"/>
    <ellipse cx="79.0" cy="68.2" rx="2.0" ry="4.8" transform="rotate(75 79.0 68.2)"/>
    <ellipse cx="80.0" cy="61.9" rx="1.9" ry="4.5" transform="rotate(84 80.0 61.9)"/>
    <ellipse cx="79.8" cy="55.7" rx="1.7" ry="4.1" transform="rotate(97 79.8 55.7)"/>
    <path d="M45.6 92.1C47.2 90.2 49.0 89.4 50 89.4C51.0 89.4 52.8 90.2 54.4 92.1C52.6 92.9 47.4 92.9 45.6 92.1Z"/>
  </g>
  <g id="shield">
    <path d="M24.5 12.2H75.5V55.4C75.5 68.1 63.2 78.7 50 86.2C36.8 78.7 24.5 68.1 24.5 55.4Z" fill="url(#shieldGold)"/>
    <path d="M28.0 16.0H72.0V55.0C72.0 65.4 61.4 74.9 50 81.8C38.6 74.9 28.0 65.4 28.0 55.0Z" fill="url(#shieldGreen)"/>
    <path d="M28.0 16.0H72.0" fill="none" stroke="#D1B180" stroke-width="1.0" opacity="0.68"/>
    <path d="M28.0 16.0V55.0C28.0 65.4 38.6 74.9 50 81.8C61.4 74.9 72.0 65.4 72.0 55.0V16.0" fill="none" stroke="#03180B" stroke-width="0.8" opacity="0.45"/>
  </g>
  <path id="letter-t" d="M32.7 30.5H67.3V39.2H63.5C62.9 37.7 62.1 36.6 61.0 35.9C60.0 35.3 58.4 35.0 56.4 35.0H54.3V65.2H60.8V72.0H39.2V65.2H45.7V35.0H43.6C41.6 35.0 40.0 35.3 39.0 35.9C37.9 36.6 37.1 37.7 36.5 39.2H32.7Z" fill="url(#letterGold)"/>
</svg>
